<svg width="20" height="20" viewBox="0 0 20 20" fill="none" xmlns="http://www.w3.org/2000/svg">
<path fill-rule="evenodd" clip-rule="evenodd" d="M10.5052 1.78647C8.50194 1.66092 6.52172 2.27089 4.93631 3.50188C3.3509 4.73286 2.26932 6.50021 1.89463 8.47213C1.51993 10.444 1.87788 12.4849 2.90128 14.2116C3.00609 14.3885 3.03372 14.6005 2.97773 14.7983L2.09916 17.9017L5.20158 17.0224C5.39942 16.9664 5.6116 16.994 5.78849 17.0988C7.5152 18.1222 9.55607 18.4802 11.528 18.1055C13.4999 17.7308 15.2673 16.6492 16.4982 15.0638C17.7292 13.4784 18.3392 11.4982 18.2136 9.49491C18.0881 7.49164 17.2356 5.60308 15.8163 4.18378C14.397 2.76447 12.5085 1.91203 10.5052 1.78647ZM4.01638 2.31708C5.8904 0.86201 8.23109 0.141 10.599 0.28941C12.967 0.437819 15.1993 1.44544 16.877 3.12312C18.5547 4.80079 19.5623 7.03314 19.7107 9.40108C19.8591 11.769 19.1381 14.1097 17.683 15.9837C16.228 17.8577 14.1389 19.1362 11.808 19.5791C9.58448 20.0016 7.28678 19.6361 5.30804 18.5514L2.5018 19.3467C2.24606 19.4213 1.97496 19.426 1.71675 19.3602C1.45698 19.294 1.21988 19.159 1.03043 18.9693C0.840975 18.7797 0.706202 18.5424 0.640307 18.2826C0.574853 18.0245 0.579766 17.7536 0.654488 17.4981L1.44883 14.6922C0.364076 12.7134 -0.0015206 10.4157 0.420994 8.19211C0.863899 5.86123 2.14236 3.77216 4.01638 2.31708Z" fill="#61738E"/>
</svg>
