<svg width="16" height="18" viewBox="0 0 16 18" fill="none" xmlns="http://www.w3.org/2000/svg">
<path fill-rule="evenodd" clip-rule="evenodd" d="M0.5 4.46875C0.5 4.12357 0.779822 3.84375 1.125 3.84375H14.875C15.2202 3.84375 15.5 4.12357 15.5 4.46875C15.5 4.81393 15.2202 5.09375 14.875 5.09375H1.125C0.779822 5.09375 0.5 4.81393 0.5 4.46875Z" fill="#A42137"/>
<path fill-rule="evenodd" clip-rule="evenodd" d="M6.125 7.28125C6.47018 7.28125 6.75 7.56107 6.75 7.90625V12.9062C6.75 13.2514 6.47018 13.5312 6.125 13.5312C5.77982 13.5312 5.5 13.2514 5.5 12.9062V7.90625C5.5 7.56107 5.77982 7.28125 6.125 7.28125Z" fill="#A42137"/>
<path fill-rule="evenodd" clip-rule="evenodd" d="M9.875 7.28125C10.2202 7.28125 10.5 7.56107 10.5 7.90625V12.9062C10.5 13.2514 10.2202 13.5312 9.875 13.5312C9.52982 13.5312 9.25 13.2514 9.25 12.9062V7.90625C9.25 7.56107 9.52982 7.28125 9.875 7.28125Z" fill="#A42137"/>
<path fill-rule="evenodd" clip-rule="evenodd" d="M2.375 3.84375C2.72018 3.84375 3 4.12357 3 4.46875V16.0312H13V4.46875C13 4.12357 13.2798 3.84375 13.625 3.84375C13.9702 3.84375 14.25 4.12357 14.25 4.46875V16.0312C14.25 16.3628 14.1183 16.6807 13.8839 16.9151C13.6495 17.1496 13.3315 17.2812 13 17.2812H3C2.66848 17.2812 2.35054 17.1496 2.11612 16.9151C1.8817 16.6807 1.75 16.3628 1.75 16.0312V4.46875C1.75 4.12357 2.02982 3.84375 2.375 3.84375Z" fill="#A42137"/>
<path fill-rule="evenodd" clip-rule="evenodd" d="M4.79917 1.26792C5.15081 0.916294 5.62772 0.71875 6.125 0.71875H9.875C10.3723 0.71875 10.8492 0.916294 11.2008 1.26792C11.5525 1.61956 11.75 2.09647 11.75 2.59375V4.46875C11.75 4.81393 11.4702 5.09375 11.125 5.09375C10.7798 5.09375 10.5 4.81393 10.5 4.46875V2.59375C10.5 2.42799 10.4342 2.26902 10.3169 2.15181C10.1997 2.0346 10.0408 1.96875 9.875 1.96875H6.125C5.95924 1.96875 5.80027 2.0346 5.68306 2.15181C5.56585 2.26902 5.5 2.42799 5.5 2.59375V4.46875C5.5 4.81393 5.22018 5.09375 4.875 5.09375C4.52982 5.09375 4.25 4.81393 4.25 4.46875V2.59375C4.25 2.09647 4.44754 1.61956 4.79917 1.26792Z" fill="#A42137"/>
</svg>
