<svg width="16" height="16" viewBox="0 0 16 16" fill="none" xmlns="http://www.w3.org/2000/svg">
<path fill-rule="evenodd" clip-rule="evenodd" d="M10.9394 1.56354L10.9372 1.56442C10.936 1.56493 10.9348 1.56544 10.9335 1.56594L10.9325 1.56694L1.55937 10.9338C1.55937 10.9338 1.55933 10.9362 1.55933 10.9375V14.431L1.56003 14.4312H5.06919L14.4223 5.07817C14.4302 5.06883 14.4356 5.06182 14.4389 5.05701L14.4395 5.05509L14.4387 5.05288C14.4381 5.05166 14.4376 5.05044 14.4371 5.04921L14.4362 5.04824L10.9627 1.58095C10.9532 1.5729 10.9462 1.56753 10.9413 1.56416L10.9394 1.56354ZM10.4641 0.407404C10.6045 0.349927 10.7646 0.3125 10.9406 0.3125C11.1273 0.3125 11.2804 0.354829 11.4087 0.404159C11.4141 0.406224 11.4194 0.408364 11.4247 0.410577C11.5891 0.479088 11.7177 0.578527 11.8087 0.660441C11.8167 0.667645 11.8245 0.675054 11.8321 0.682662L15.3196 4.16391C15.4221 4.26635 15.5266 4.40424 15.5957 4.57981C15.6532 4.72022 15.6906 4.88031 15.6906 5.05625C15.6906 5.24301 15.6482 5.3961 15.5989 5.52436C15.5969 5.52973 15.5947 5.53507 15.5925 5.54038C15.524 5.70481 15.4245 5.83334 15.3426 5.92435C15.3353 5.9325 15.3278 5.94044 15.32 5.94819L5.76377 15.5044C5.62198 15.6462 5.42443 15.7085 5.23337 15.6812H1.55933C1.21694 15.6812 0.910217 15.5414 0.685736 15.3287C0.681649 15.3248 0.677615 15.3209 0.673634 15.3169C0.433363 15.0767 0.309326 14.7596 0.309326 14.4312V10.9375C0.309326 10.7941 0.331162 10.6276 0.401153 10.4596C0.459447 10.3197 0.54591 10.1795 0.667384 10.0581L10.0486 0.683058C10.1511 0.580663 10.2887 0.47647 10.4641 0.407404Z" fill="#61738E"/>
<path fill-rule="evenodd" clip-rule="evenodd" d="M7.99238 2.73306C8.23646 2.48898 8.63219 2.48898 8.87627 2.73306L13.2513 7.10806C13.4953 7.35214 13.4953 7.74786 13.2513 7.99194C13.0072 8.23602 12.6115 8.23602 12.3674 7.99194L7.99238 3.61694C7.74831 3.37286 7.74831 2.97714 7.99238 2.73306Z" fill="#61738E"/>
<path fill-rule="evenodd" clip-rule="evenodd" d="M4.68433 15.05C4.68433 14.7048 4.96415 14.425 5.30933 14.425H14.6843C15.0295 14.425 15.3093 14.7048 15.3093 15.05C15.3093 15.3952 15.0295 15.675 14.6843 15.675H5.30933C4.96415 15.675 4.68433 15.3952 4.68433 15.05Z" fill="#61738E"/>
</svg>
