<svg width="24" height="20" viewBox="0 0 24 20" fill="none" xmlns="http://www.w3.org/2000/svg">
<path d="M12 2.46981C11.2747 1.68433 10.3537 1.09954 9.32628 0.778605C8.09922 0.395301 6.78267 0.407795 5.5631 0.814315C4.34354 1.22084 3.2828 2.00077 2.53114 3.04365C1.77948 4.08653 1.375 5.33947 1.375 6.625C1.375 10.2173 3.85771 13.3583 6.26871 15.5766C8.68011 17.7952 11.137 19.1975 11.3811 19.3368L11.387 19.3402L11.3895 19.3416C11.5752 19.4462 11.7849 19.5008 11.998 19.5C12.214 19.5026 12.4269 19.4473 12.6144 19.3399L12.6144 19.3399L12.6183 19.3377C14.3723 18.3123 16.0174 17.1112 17.5283 15.7528L17.5284 15.7527C20.8496 12.7645 22.625 9.697 22.625 6.625C22.625 5.00055 21.9797 3.44263 20.831 2.29397C19.6824 1.14531 18.1245 0.5 16.5 0.5C15.5491 0.5 14.6113 0.721389 13.7608 1.14663C13.0972 1.47844 12.501 1.92723 12 2.46981Z" fill="#E22D4C" stroke="#E22D4C"/>
</svg>
