<svg width="234" height="30" viewBox="0 0 234 30" fill="none" xmlns="http://www.w3.org/2000/svg">
<path fill-rule="evenodd" clip-rule="evenodd" d="M14.5286 4.99377C16.7606 4.41948 19.4538 5.21148 21.0943 6.95834H22.9338C23.0787 6.95847 23.2213 6.99537 23.3481 7.06559C23.475 7.13581 23.5819 7.23704 23.659 7.35983C23.7361 7.48262 23.7807 7.62296 23.7888 7.7677C23.7969 7.91245 23.7681 8.05688 23.7052 8.18748L21.8966 11.9366C22.4109 16.3029 20.7018 20.4789 17.2646 22.9475C13.7503 25.4726 8.57834 26.1086 2.44463 23.5972C2.11125 23.4715 1.82533 23.245 1.62663 22.9492C1.42793 22.6534 1.32632 22.3031 1.33594 21.9469C1.34556 21.5908 1.46592 21.2464 1.68028 20.9618C1.89465 20.6772 2.19238 20.4665 2.53206 20.3589C3.4731 20.104 4.37508 19.7222 5.2132 19.2241C3.3362 18.0962 1.86661 16.4005 1.01698 14.3823C0.167341 12.3641 -0.018296 10.1279 0.486915 7.9972C0.52509 7.67886 0.651775 7.3776 0.852582 7.12765C1.05339 6.8777 1.32027 6.68907 1.6229 6.58319C1.92554 6.47731 2.2518 6.45843 2.56463 6.52868C2.87747 6.59894 3.16432 6.75551 3.39263 6.98063C5.81491 9.36177 7.93206 10.3458 9.39949 10.7486C9.96863 10.9046 10.4452 10.9749 10.8086 11.0041C10.6955 9.49548 10.9526 8.2372 11.5218 7.24291C12.2143 6.03091 13.3166 5.30577 14.5286 4.99377Z" fill="#0041CA"/>
<path d="M46.9858 11.0653C46.9176 10.3778 46.625 9.84375 46.108 9.46307C45.5909 9.08239 44.8892 8.89204 44.0028 8.89204C43.4006 8.89204 42.892 8.97727 42.4773 9.14773C42.0625 9.3125 41.7443 9.54261 41.5227 9.83807C41.3068 10.1335 41.1989 10.4688 41.1989 10.8438C41.1875 11.1562 41.2528 11.429 41.3949 11.6619C41.5426 11.8949 41.7443 12.0966 42 12.267C42.2557 12.4318 42.5511 12.5767 42.8864 12.7017C43.2216 12.821 43.5795 12.9233 43.9602 13.0085L45.5284 13.3835C46.2898 13.554 46.9886 13.7812 47.625 14.0653C48.2614 14.3494 48.8125 14.6989 49.2784 15.1136C49.7443 15.5284 50.1051 16.017 50.3608 16.5795C50.6222 17.142 50.7557 17.7869 50.7614 18.5142C50.7557 19.5824 50.483 20.5085 49.9432 21.2926C49.4091 22.071 48.6364 22.6761 47.625 23.108C46.6193 23.5341 45.4063 23.7472 43.9858 23.7472C42.5767 23.7472 41.3494 23.5312 40.304 23.0994C39.2642 22.6676 38.4517 22.0284 37.8665 21.1818C37.2869 20.3295 36.983 19.2756 36.9545 18.0199H40.5256C40.5653 18.6051 40.733 19.0937 41.0284 19.4858C41.3295 19.8722 41.7301 20.1648 42.2301 20.3636C42.7358 20.5568 43.3068 20.6534 43.9432 20.6534C44.5682 20.6534 45.1108 20.5625 45.571 20.3807C46.0369 20.1989 46.3977 19.946 46.6534 19.6222C46.9091 19.2983 47.0369 18.9261 47.0369 18.5057C47.0369 18.1136 46.9205 17.7841 46.6875 17.517C46.4602 17.25 46.125 17.0227 45.6818 16.8352C45.2443 16.6477 44.7074 16.4773 44.071 16.3239L42.1705 15.8466C40.6989 15.4886 39.5369 14.929 38.6847 14.1676C37.8324 13.4062 37.4091 12.3807 37.4148 11.0909C37.4091 10.0341 37.6903 9.1108 38.2585 8.32102C38.8324 7.53125 39.6193 6.91477 40.6193 6.47159C41.6193 6.02841 42.7557 5.80682 44.0284 5.80682C45.3239 5.80682 46.4545 6.02841 47.4205 6.47159C48.392 6.91477 49.1477 7.53125 49.6875 8.32102C50.2273 9.1108 50.5057 10.0256 50.5227 11.0653H46.9858ZM69.1242 12.1562H65.3912C65.323 11.6733 65.1838 11.2443 64.9736 10.8693C64.7634 10.4886 64.4935 10.1648 64.1639 9.89773C63.8344 9.63068 63.4537 9.42614 63.0219 9.28409C62.5958 9.14205 62.1327 9.07102 61.6327 9.07102C60.7293 9.07102 59.9424 9.29545 59.2719 9.74432C58.6014 10.1875 58.0816 10.8352 57.7122 11.6875C57.3429 12.5341 57.1583 13.5625 57.1583 14.7727C57.1583 16.017 57.3429 17.0625 57.7122 17.9091C58.0872 18.7557 58.61 19.3949 59.2804 19.8267C59.9509 20.2585 60.7264 20.4744 61.6071 20.4744C62.1014 20.4744 62.5588 20.4091 62.9793 20.2784C63.4054 20.1477 63.7833 19.9574 64.1128 19.7074C64.4424 19.4517 64.7151 19.142 64.931 18.7784C65.1526 18.4148 65.306 18 65.3912 17.5341L69.1242 17.5511C69.0276 18.3523 68.7861 19.125 68.3997 19.8693C68.0191 20.608 67.5049 21.2699 66.8571 21.8551C66.2151 22.4347 65.448 22.8949 64.556 23.2358C63.6696 23.571 62.6668 23.7386 61.5475 23.7386C59.9907 23.7386 58.5986 23.3864 57.3713 22.6818C56.1497 21.9773 55.1838 20.9574 54.4736 19.6222C53.7691 18.2869 53.4168 16.6705 53.4168 14.7727C53.4168 12.8693 53.7747 11.25 54.4907 9.91477C55.2066 8.57955 56.1782 7.5625 57.4054 6.86364C58.6327 6.15909 60.0134 5.80682 61.5475 5.80682C62.5588 5.80682 63.4963 5.94886 64.36 6.23295C65.2293 6.51705 65.9992 6.93182 66.6696 7.47727C67.3401 8.01704 67.8855 8.67898 68.306 9.46307C68.7321 10.2472 69.0049 11.1449 69.1242 12.1562ZM74.9309 23.5H70.9763L77.0019 6.04545H81.7576L87.7746 23.5H83.8201L79.4479 10.0341H79.3116L74.9309 23.5ZM74.6837 16.6392H84.0246V19.5199H74.6837V16.6392ZM90.3555 23.5V6.04545H94.0458V20.4574H101.529V23.5H90.3555ZM104.453 23.5V6.04545H116.214V9.08807H108.143V13.2472H115.609V16.2898H108.143V20.4574H116.248V23.5H104.453ZM119.628 23.5V6.04545H126.514C127.833 6.04545 128.958 6.28125 129.889 6.75284C130.827 7.21875 131.54 7.88068 132.029 8.73864C132.523 9.59091 132.77 10.5937 132.77 11.7472C132.77 12.9062 132.52 13.9034 132.02 14.7386C131.52 15.5682 130.796 16.2045 129.847 16.6477C128.904 17.0909 127.762 17.3125 126.421 17.3125H121.81V14.3466H125.824C126.529 14.3466 127.114 14.25 127.58 14.0568C128.046 13.8636 128.392 13.5739 128.619 13.1875C128.852 12.8011 128.969 12.321 128.969 11.7472C128.969 11.1676 128.852 10.679 128.619 10.2812C128.392 9.88352 128.043 9.58239 127.571 9.37784C127.105 9.16761 126.517 9.0625 125.807 9.0625H123.318V23.5H119.628ZM129.054 15.5568L133.392 23.5H129.318L125.074 15.5568H129.054ZM151.361 11.0653C151.293 10.3778 151.001 9.84375 150.484 9.46307C149.967 9.08239 149.265 8.89204 148.378 8.89204C147.776 8.89204 147.268 8.97727 146.853 9.14773C146.438 9.3125 146.12 9.54261 145.898 9.83807C145.682 10.1335 145.574 10.4688 145.574 10.8438C145.563 11.1562 145.628 11.429 145.771 11.6619C145.918 11.8949 146.12 12.0966 146.376 12.267C146.631 12.4318 146.927 12.5767 147.262 12.7017C147.597 12.821 147.955 12.9233 148.336 13.0085L149.904 13.3835C150.665 13.554 151.364 13.7812 152.001 14.0653C152.637 14.3494 153.188 14.6989 153.654 15.1136C154.12 15.5284 154.481 16.017 154.736 16.5795C154.998 17.142 155.131 17.7869 155.137 18.5142C155.131 19.5824 154.859 20.5085 154.319 21.2926C153.785 22.071 153.012 22.6761 152.001 23.108C150.995 23.5341 149.782 23.7472 148.361 23.7472C146.952 23.7472 145.725 23.5312 144.68 23.0994C143.64 22.6676 142.827 22.0284 142.242 21.1818C141.663 20.3295 141.359 19.2756 141.33 18.0199H144.901C144.941 18.6051 145.109 19.0937 145.404 19.4858C145.705 19.8722 146.106 20.1648 146.606 20.3636C147.111 20.5568 147.682 20.6534 148.319 20.6534C148.944 20.6534 149.486 20.5625 149.947 20.3807C150.413 20.1989 150.773 19.946 151.029 19.6222C151.285 19.2983 151.413 18.9261 151.413 18.5057C151.413 18.1136 151.296 17.7841 151.063 17.517C150.836 17.25 150.501 17.0227 150.057 16.8352C149.62 16.6477 149.083 16.4773 148.447 16.3239L146.546 15.8466C145.074 15.4886 143.913 14.929 143.06 14.1676C142.208 13.4062 141.785 12.3807 141.79 11.0909C141.785 10.0341 142.066 9.1108 142.634 8.32102C143.208 7.53125 143.995 6.91477 144.995 6.47159C145.995 6.02841 147.131 5.80682 148.404 5.80682C149.699 5.80682 150.83 6.02841 151.796 6.47159C152.768 6.91477 153.523 7.53125 154.063 8.32102C154.603 9.1108 154.881 10.0256 154.898 11.0653H151.361ZM174.139 14.7727C174.139 16.6761 173.778 18.2955 173.057 19.6307C172.341 20.9659 171.363 21.9858 170.125 22.6903C168.892 23.3892 167.505 23.7386 165.966 23.7386C164.415 23.7386 163.023 23.3864 161.79 22.6818C160.557 21.9773 159.582 20.9574 158.866 19.6222C158.15 18.2869 157.792 16.6705 157.792 14.7727C157.792 12.8693 158.15 11.25 158.866 9.91477C159.582 8.57955 160.557 7.5625 161.79 6.86364C163.023 6.15909 164.415 5.80682 165.966 5.80682C167.505 5.80682 168.892 6.15909 170.125 6.86364C171.363 7.5625 172.341 8.57955 173.057 9.91477C173.778 11.25 174.139 12.8693 174.139 14.7727ZM170.398 14.7727C170.398 13.5398 170.213 12.5 169.844 11.6534C169.48 10.8068 168.966 10.1648 168.301 9.72727C167.636 9.28977 166.858 9.07102 165.966 9.07102C165.074 9.07102 164.295 9.28977 163.63 9.72727C162.966 10.1648 162.449 10.8068 162.079 11.6534C161.716 12.5 161.534 13.5398 161.534 14.7727C161.534 16.0057 161.716 17.0455 162.079 17.892C162.449 18.7386 162.966 19.3807 163.63 19.8182C164.295 20.2557 165.074 20.4744 165.966 20.4744C166.858 20.4744 167.636 20.2557 168.301 19.8182C168.966 19.3807 169.48 18.7386 169.844 17.892C170.213 17.0455 170.398 16.0057 170.398 14.7727ZM192.753 12.1562H189.02C188.952 11.6733 188.813 11.2443 188.603 10.8693C188.392 10.4886 188.123 10.1648 187.793 9.89773C187.463 9.63068 187.083 9.42614 186.651 9.28409C186.225 9.14205 185.762 9.07102 185.262 9.07102C184.358 9.07102 183.571 9.29545 182.901 9.74432C182.231 10.1875 181.711 10.8352 181.341 11.6875C180.972 12.5341 180.787 13.5625 180.787 14.7727C180.787 16.017 180.972 17.0625 181.341 17.9091C181.716 18.7557 182.239 19.3949 182.909 19.8267C183.58 20.2585 184.356 20.4744 185.236 20.4744C185.731 20.4744 186.188 20.4091 186.608 20.2784C187.034 20.1477 187.412 19.9574 187.742 19.7074C188.071 19.4517 188.344 19.142 188.56 18.7784C188.782 18.4148 188.935 18 189.02 17.5341L192.753 17.5511C192.657 18.3523 192.415 19.125 192.029 19.8693C191.648 20.608 191.134 21.2699 190.486 21.8551C189.844 22.4347 189.077 22.8949 188.185 23.2358C187.299 23.571 186.296 23.7386 185.177 23.7386C183.62 23.7386 182.228 23.3864 181 22.6818C179.779 21.9773 178.813 20.9574 178.103 19.6222C177.398 18.2869 177.046 16.6705 177.046 14.7727C177.046 12.8693 177.404 11.25 178.12 9.91477C178.836 8.57955 179.807 7.5625 181.034 6.86364C182.262 6.15909 183.642 5.80682 185.177 5.80682C186.188 5.80682 187.125 5.94886 187.989 6.23295C188.858 6.51705 189.628 6.93182 190.299 7.47727C190.969 8.01704 191.515 8.67898 191.935 9.46307C192.361 10.2472 192.634 11.1449 192.753 12.1562ZM199.57 6.04545V23.5H195.88V6.04545H199.57ZM206.095 23.5H202.14L208.166 6.04545H212.921L218.938 23.5H214.984L210.612 10.0341H210.475L206.095 23.5ZM205.847 16.6392H215.188V19.5199H205.847V16.6392ZM221.519 23.5V6.04545H225.21V20.4574H232.693V23.5H221.519Z" fill="#0245B9"/>
</svg>
