<svg width="117" height="34" viewBox="0 0 117 34" fill="none" xmlns="http://www.w3.org/2000/svg">
<g clip-path="url(#clip0_5_163)">
<path d="M43.3314 10.1506C40.9878 9.73571 40.593 9.40126 40.593 8.80653C40.593 7.89244 41.696 7.70132 42.622 7.70132C44.4982 7.70132 44.944 8.37023 45.1337 9.02405L45.1643 9.12967H48.4734L48.4581 8.96999C48.3715 8.09236 47.7003 5.22937 42.7188 5.22937C39.3766 5.22937 37.2164 6.74699 37.2164 9.09572C37.2164 10.6712 37.852 12.2366 42.4628 13.0149C45.0713 13.4524 45.549 13.9063 45.549 14.6419C45.549 15.1725 45.3044 15.8779 43.1926 15.8779C41.398 15.8779 40.4248 15.3649 40.0376 14.2131L40.0045 14.1138H36.6865L36.7158 14.2835C37.3183 17.8192 40.8541 18.3473 42.9086 18.3473C48.3562 18.3473 48.9447 15.5434 48.9447 14.3376C48.9447 12.3661 48.0059 10.9792 43.334 10.1506" fill="black"/>
<path d="M77.3942 18.2568H73.6432L72.6688 15.351H67.8784L66.8823 18.2568H63.2153L68.1318 5.38403H72.4981L77.3942 18.2568ZM68.556 13.069H71.9899L70.2729 7.86101L68.556 13.069Z" fill="black"/>
<path d="M82.6723 15.6629H89.6878V18.2568H79.0256V5.38403H82.6723V15.6629Z" fill="black"/>
<path d="M91.3909 18.2568V5.38403H102.285V7.97795H95.0362V10.5907H101.816V13.03H95.0362V15.6629H102.266V18.2568H91.3909Z" fill="black"/>
<path d="M116.755 18.2568L113.111 13.0589C113.664 12.8892 114.144 12.6516 114.552 12.346C115.47 11.657 115.93 10.6561 115.93 9.34221C115.93 8.14647 115.466 7.18711 114.542 6.46539C113.616 5.74367 112.319 5.38281 110.653 5.38281H103.976V18.2556H107.558V13.5556H109.742L112.729 18.2556H116.757L116.755 18.2568ZM107.557 7.92014H110.142C110.849 7.92014 111.379 8.05091 111.732 8.30992C112.085 8.57019 112.262 8.98009 112.262 9.53835C112.262 10.0966 112.085 10.5266 111.732 10.7869C111.379 11.0472 110.848 11.1767 110.142 11.1767H107.557V7.91889V7.92014Z" fill="black"/>
<path d="M56.6493 15.4767C54.6725 15.4767 53.1619 13.9993 53.1619 11.8468C53.1619 9.69418 54.6738 8.21679 56.6493 8.21679C57.9931 8.21679 59.0502 8.7826 59.5686 10.0349L62.4994 9.05419C61.5543 6.33831 59.0846 5.41919 56.648 5.41919C52.6511 5.41919 49.905 8.03071 49.905 11.8468C49.905 15.6628 52.6524 18.2743 56.648 18.2743C59.8043 18.2743 62.2727 16.768 62.8102 13.0236H59.6858C59.2209 14.5161 58.1013 15.4767 56.648 15.4767" fill="black"/>
<path d="M39.5676 23.1416C39.3014 23.0636 39.0556 23.0246 38.8327 23.0246C38.5232 23.0246 38.2748 23.0837 38.0901 23.2019C37.9042 23.3201 37.8125 23.4811 37.8125 23.6873C37.8125 23.8733 37.8685 24.0242 37.9806 24.1424C38.0927 24.2606 38.229 24.3524 38.392 24.4203C38.555 24.4882 38.7805 24.5674 39.0696 24.6567C39.4301 24.7673 39.7218 24.8717 39.9459 24.9723C40.1688 25.0729 40.3599 25.2212 40.5178 25.4199C40.6758 25.6185 40.7535 25.8801 40.7535 26.2057C40.7535 26.5062 40.6707 26.7703 40.5064 26.9953C40.3408 27.2204 40.1102 27.3952 39.8135 27.5184C39.5167 27.6416 39.1753 27.702 38.7894 27.702C38.4035 27.702 38.0175 27.6265 37.6469 27.4769C37.2762 27.326 36.9565 27.1261 36.6865 26.8759L37.0139 26.2523C37.2673 26.4974 37.5539 26.6873 37.8711 26.8206C38.1882 26.9539 38.4965 27.0192 38.7971 27.0192C39.1524 27.0192 39.4326 26.9501 39.639 26.8118C39.844 26.6735 39.9472 26.4874 39.9472 26.2523C39.9472 26.0674 39.8912 25.914 39.7791 25.7933C39.667 25.6726 39.5269 25.5783 39.3562 25.5079C39.1855 25.4375 38.9563 25.3608 38.6671 25.2753C38.3118 25.1697 38.0226 25.0666 37.7985 24.9672C37.5743 24.8667 37.3858 24.7195 37.2317 24.5234C37.0763 24.3285 36.9999 24.0695 36.9999 23.7489C36.9999 23.4685 37.0788 23.2195 37.2355 23.0045C37.3934 22.7895 37.6138 22.6235 37.8978 22.5079C38.1819 22.3922 38.5117 22.3344 38.8875 22.3344C39.2072 22.3344 39.5205 22.3809 39.8288 22.4739C40.1357 22.567 40.4083 22.6914 40.6477 22.8461L40.3433 23.4924C40.095 23.3377 39.8364 23.2208 39.5702 23.1428L39.5676 23.1416Z" fill="black"/>
<path d="M43.5251 24.2808C43.2615 24.2808 43.0259 24.3386 42.8208 24.4543C42.6144 24.57 42.454 24.7322 42.3368 24.9434C42.2196 25.1546 42.161 25.3973 42.161 25.6726C42.161 25.948 42.2183 26.1907 42.333 26.4019C42.4476 26.6119 42.6043 26.7766 42.8055 26.8948C43.0055 27.013 43.236 27.0721 43.4946 27.0721C43.7531 27.0721 43.9875 27.0293 44.1951 26.9438C44.4027 26.8583 44.576 26.7364 44.7135 26.5754L45.1173 26.9815C44.9339 27.2066 44.7021 27.3801 44.4206 27.5008C44.1391 27.6215 43.8194 27.6819 43.464 27.6819C43.073 27.6819 42.7253 27.5964 42.4208 27.4267C42.1164 27.2569 41.8782 27.0193 41.7088 26.7162C41.5382 26.4132 41.4541 26.0662 41.4541 25.6752C41.4541 25.2841 41.5394 24.9358 41.7088 24.6303C41.8795 24.3248 42.1164 24.0859 42.4208 23.9161C42.7253 23.7451 43.073 23.6609 43.464 23.6609C43.8041 23.6609 44.1098 23.7124 44.3824 23.8155C44.6537 23.9186 44.8816 24.067 45.0638 24.2632L44.6753 24.7447C44.3556 24.4392 43.9722 24.2858 43.5251 24.2858V24.2808Z" fill="black"/>
<path d="M49.5267 24.067C49.7955 24.3399 49.9305 24.7171 49.9305 25.1986V27.658H49.2223V25.3872C49.2223 25.0515 49.1268 24.79 48.937 24.6014C48.7459 24.414 48.4836 24.3197 48.1486 24.3197C47.7576 24.3248 47.448 24.4555 47.2188 24.7108C46.9908 24.966 46.8761 25.2967 46.8761 25.7028V27.658H46.168V22.0779H46.8761V24.5373C47.1449 23.9601 47.6582 23.6672 48.4148 23.6571C48.8873 23.6571 49.258 23.7942 49.5267 24.067Z" fill="black"/>
<path d="M53.9415 23.9123C54.2536 24.0833 54.4981 24.3197 54.6726 24.6228C54.8484 24.9258 54.935 25.2728 54.935 25.6638C54.935 26.0549 54.8471 26.4032 54.6726 26.7087C54.4968 27.0142 54.2536 27.2531 53.9415 27.4229C53.6294 27.5939 53.2728 27.6781 52.8716 27.6781C52.4704 27.6781 52.1061 27.5926 51.794 27.4229C51.482 27.2531 51.2387 27.0155 51.0629 26.7125C50.8871 26.4094 50.8005 26.0599 50.8005 25.6638C50.8005 25.2678 50.8884 24.9258 51.0629 24.6228C51.2387 24.3197 51.482 24.0821 51.794 23.9123C52.1061 23.7413 52.4653 23.6571 52.8716 23.6571C53.2779 23.6571 53.6294 23.7426 53.9415 23.9123ZM52.1672 24.4467C51.9622 24.5674 51.8017 24.7334 51.687 24.9471C51.5724 25.1609 51.5151 25.4023 51.5151 25.6726C51.5151 25.943 51.5724 26.1944 51.687 26.4094C51.8017 26.6245 51.9609 26.7917 52.1672 26.9099C52.3736 27.0281 52.6079 27.0872 52.8716 27.0872C53.1352 27.0872 53.3632 27.0281 53.5683 26.9099C53.7746 26.7917 53.9339 26.6257 54.0485 26.4094C54.1631 26.1944 54.2204 25.948 54.2204 25.6726C54.2204 25.3973 54.1631 25.1596 54.0485 24.9471C53.9339 24.7347 53.7746 24.5674 53.5683 24.4467C53.362 24.326 53.1301 24.2669 52.8716 24.2669C52.613 24.2669 52.3723 24.3273 52.1672 24.4467Z" fill="black"/>
<path d="M58.672 23.9123C58.984 24.0833 59.2286 24.3197 59.4031 24.6228C59.5788 24.9258 59.6655 25.2728 59.6655 25.6638C59.6655 26.0549 59.5776 26.4032 59.4031 26.7087C59.2273 27.0142 58.984 27.2531 58.672 27.4229C58.3599 27.5939 58.0033 27.6781 57.602 27.6781C57.2008 27.6781 56.8366 27.5926 56.5245 27.4229C56.2124 27.2531 55.9692 27.0155 55.7934 26.7125C55.6176 26.4094 55.531 26.0599 55.531 25.6638C55.531 25.2678 55.6189 24.9258 55.7934 24.6228C55.9692 24.3197 56.2124 24.0821 56.5245 23.9123C56.8366 23.7413 57.1957 23.6571 57.602 23.6571C58.0084 23.6571 58.3599 23.7426 58.672 23.9123ZM56.8977 24.4467C56.6926 24.5674 56.5321 24.7334 56.4175 24.9471C56.3029 25.1609 56.2456 25.4023 56.2456 25.6726C56.2456 25.943 56.3029 26.1944 56.4175 26.4094C56.5321 26.6245 56.6913 26.7917 56.8977 26.9099C57.104 27.0281 57.3384 27.0872 57.602 27.0872C57.8657 27.0872 58.0937 27.0281 58.2988 26.9099C58.5051 26.7917 58.6643 26.6257 58.779 26.4094C58.8936 26.1932 58.9509 25.948 58.9509 25.6726C58.9509 25.3973 58.8936 25.1596 58.779 24.9471C58.6643 24.7347 58.5051 24.5674 58.2988 24.4467C58.0924 24.326 57.8606 24.2669 57.602 24.2669C57.3435 24.2669 57.1028 24.3273 56.8977 24.4467Z" fill="black"/>
<path d="M60.6934 22.0779H61.4015V27.658H60.6934V22.0779Z" fill="black"/>
<path d="M67.5687 23.9123C67.8807 24.0833 68.1253 24.3197 68.2998 24.6228C68.4756 24.9258 68.5622 25.2728 68.5622 25.6638C68.5622 26.0549 68.4743 26.4032 68.2998 26.7087C68.124 27.0142 67.8807 27.2531 67.5687 27.4229C67.2566 27.5939 66.9 27.6781 66.4988 27.6781C66.0976 27.6781 65.7333 27.5926 65.4212 27.4229C65.1092 27.2531 64.8659 27.0155 64.6901 26.7125C64.5143 26.4094 64.4277 26.0599 64.4277 25.6638C64.4277 25.2678 64.5156 24.9258 64.6901 24.6228C64.8659 24.3197 65.1092 24.0821 65.4212 23.9123C65.7333 23.7413 66.0925 23.6571 66.4988 23.6571C66.9051 23.6571 67.2566 23.7426 67.5687 23.9123ZM65.7944 24.4467C65.5894 24.5674 65.4289 24.7334 65.3142 24.9471C65.1996 25.1609 65.1423 25.4023 65.1423 25.6726C65.1423 25.943 65.1996 26.1944 65.3142 26.4094C65.4289 26.6245 65.5881 26.7917 65.7944 26.9099C66.0008 27.0281 66.2351 27.0872 66.4988 27.0872C66.7624 27.0872 66.9904 27.0281 67.1955 26.9099C67.4018 26.7917 67.5611 26.6257 67.6757 26.4094C67.7903 26.1932 67.8476 25.948 67.8476 25.6726C67.8476 25.3973 67.7903 25.1596 67.6757 24.9471C67.5611 24.7347 67.4018 24.5674 67.1955 24.4467C66.9892 24.326 66.7573 24.2669 66.4988 24.2669C66.2402 24.2669 65.9995 24.3273 65.7944 24.4467Z" fill="black"/>
<path d="M70.5199 22.8222C70.3976 22.9329 70.3365 23.09 70.3365 23.2962V23.8155H71.4485V24.3499H70.3365V27.658H69.6283V24.3499H69.1023V23.8155H69.6283V23.3868C69.6283 23.0963 69.6907 22.8486 69.8143 22.6462C69.9391 22.4437 70.1021 22.2904 70.3059 22.1872C70.5085 22.0841 70.7275 22.0326 70.9606 22.0326C71.1937 22.0326 71.4179 22.0929 71.6612 22.2137L71.493 22.7857C71.3096 22.7002 71.1377 22.6575 70.9746 22.6575C70.7912 22.6575 70.6397 22.7128 70.5174 22.8235L70.5199 22.8222Z" fill="black"/>
<path d="M73.4749 22.3934H77.6412V23.0548H75.9192V27.6567H75.188V23.0548H73.4736V22.3934H73.4749Z" fill="black"/>
<path d="M81.4433 24.2015C81.763 24.5649 81.9235 25.0703 81.9235 25.7166C81.9235 25.8172 81.921 25.8926 81.9159 25.9417H78.7316C78.7877 26.2975 78.9392 26.5804 79.1851 26.7916C79.4309 27.0029 79.7353 27.1072 80.0958 27.1072C80.334 27.1072 80.5569 27.0645 80.7619 26.979C80.9683 26.8935 81.1466 26.774 81.2994 26.6181L81.6879 27.0167C81.4905 27.2267 81.251 27.3901 80.9721 27.5058C80.6931 27.6215 80.3824 27.6793 80.0423 27.6793C79.6462 27.6793 79.2946 27.5951 78.9877 27.4279C78.6807 27.2594 78.4412 27.023 78.2718 26.7175C78.1012 26.4119 78.0171 26.0636 78.0171 25.6726C78.0171 25.2816 78.1024 24.9345 78.2718 24.6315C78.4425 24.3285 78.6794 24.0896 78.9838 23.9173C79.2882 23.7438 79.636 23.6583 80.027 23.6583C80.6511 23.6583 81.1236 23.8406 81.4433 24.204V24.2015ZM81.2829 25.401C81.2625 25.0402 81.1402 24.756 80.9173 24.5473C80.6931 24.3398 80.3989 24.2354 80.0334 24.2354C79.6678 24.2354 79.3825 24.3411 79.1456 24.551C78.91 24.761 78.7686 25.0452 78.7227 25.401H81.2816H81.2829Z" fill="black"/>
<path d="M84.5663 24.2808C84.3027 24.2808 84.0671 24.3386 83.862 24.4543C83.6569 24.57 83.4952 24.7322 83.378 24.9434C83.2608 25.1546 83.2022 25.3973 83.2022 25.6726C83.2022 25.948 83.2595 26.1907 83.3742 26.4019C83.4888 26.6119 83.6455 26.7766 83.8467 26.8948C84.0479 27.013 84.2772 27.0721 84.5358 27.0721C84.7943 27.0721 85.0287 27.0293 85.2363 26.9438C85.4452 26.8583 85.6172 26.7364 85.7547 26.5754L86.1585 26.9815C85.9763 27.2066 85.7432 27.3801 85.4618 27.5008C85.1803 27.6215 84.8618 27.6819 84.5065 27.6819C84.1155 27.6819 83.7677 27.5964 83.4633 27.4267C83.1589 27.2569 82.9207 27.0193 82.7513 26.7162C82.5806 26.4132 82.4966 26.0662 82.4966 25.6752C82.4966 25.2841 82.5819 24.9358 82.7513 24.6303C82.922 24.3248 83.1589 24.0859 83.4633 23.9161C83.7677 23.7451 84.1155 23.6609 84.5065 23.6609C84.8466 23.6609 85.1523 23.7124 85.4248 23.8155C85.6961 23.9186 85.9241 24.067 86.1063 24.2632L85.7178 24.7447C85.3981 24.4392 85.0147 24.2858 84.5676 24.2858L84.5663 24.2808Z" fill="black"/>
<path d="M90.5682 24.067C90.8369 24.3399 90.9719 24.7171 90.9719 25.1986V27.658H90.2638V25.3872C90.2638 25.0515 90.1682 24.79 89.9785 24.6014C89.7874 24.414 89.525 24.3197 89.19 24.3197C88.799 24.3248 88.4895 24.4555 88.2615 24.7108C88.0335 24.966 87.9189 25.2967 87.9189 25.7028V27.658H87.2107V22.0779H87.9189V24.5373C88.1876 23.9601 88.7009 23.6672 89.4575 23.6571C89.9301 23.6571 90.3007 23.7942 90.5695 24.067H90.5682Z" fill="black"/>
<path d="M95.5877 24.067C95.8564 24.3398 95.9915 24.717 95.9915 25.1986V27.658H95.2833V25.3872C95.2833 25.0515 95.1878 24.7899 94.998 24.6013C94.8069 24.414 94.5445 24.3197 94.2095 24.3197C93.8491 24.3247 93.5561 24.4391 93.3294 24.6617C93.104 24.8842 92.9753 25.1747 92.9448 25.5305V27.6592H92.2366V23.681H92.9448V24.5234C93.2135 23.9563 93.7243 23.6684 94.4757 23.6583C94.9483 23.6583 95.3189 23.7954 95.5877 24.0682V24.067Z" fill="black"/>
<path d="M100.002 23.9123C100.314 24.0833 100.559 24.3197 100.733 24.6228C100.909 24.9258 100.996 25.2728 100.996 25.6638C100.996 26.0549 100.908 26.4032 100.733 26.7087C100.558 27.0142 100.314 27.2531 100.002 27.4229C99.6902 27.5939 99.3336 27.6781 98.9324 27.6781C98.5312 27.6781 98.1669 27.5926 97.8548 27.4229C97.5428 27.2531 97.2995 27.0155 97.1237 26.7125C96.9479 26.4094 96.8613 26.0599 96.8613 25.6638C96.8613 25.2678 96.9492 24.9258 97.1237 24.6228C97.2995 24.3197 97.5428 24.0821 97.8548 23.9123C98.1669 23.7413 98.5261 23.6571 98.9324 23.6571C99.3387 23.6571 99.6902 23.7426 100.002 23.9123ZM98.228 24.4467C98.023 24.5674 97.8625 24.7334 97.7478 24.9471C97.6332 25.1609 97.5759 25.4023 97.5759 25.6726C97.5759 25.943 97.6332 26.1944 97.7478 26.4094C97.8625 26.6245 98.0217 26.7917 98.228 26.9099C98.4344 27.0281 98.6687 27.0872 98.9324 27.0872C99.196 27.0872 99.424 27.0281 99.6291 26.9099C99.8354 26.7917 99.9946 26.6257 100.109 26.4094C100.224 26.1932 100.281 25.948 100.281 25.6726C100.281 25.3973 100.224 25.1596 100.109 24.9471C99.9946 24.7347 99.8354 24.5674 99.6291 24.4467C99.4228 24.326 99.1909 24.2669 98.9324 24.2669C98.6738 24.2669 98.4331 24.3273 98.228 24.4467Z" fill="black"/>
<path d="M102.025 22.0779H102.733V27.658H102.025V22.0779Z" fill="black"/>
<path d="M106.903 23.9123C107.215 24.0833 107.46 24.3197 107.635 24.6228C107.81 24.9258 107.897 25.2728 107.897 25.6638C107.897 26.0549 107.809 26.4032 107.635 26.7087C107.459 27.0142 107.215 27.2531 106.903 27.4229C106.591 27.5939 106.235 27.6781 105.833 27.6781C105.432 27.6781 105.068 27.5926 104.756 27.4229C104.444 27.2531 104.201 27.0155 104.025 26.7125C103.849 26.4094 103.762 26.0599 103.762 25.6638C103.762 25.2678 103.85 24.9258 104.025 24.6228C104.201 24.3197 104.444 24.0821 104.756 23.9123C105.068 23.7413 105.427 23.6571 105.833 23.6571C106.24 23.6571 106.591 23.7426 106.903 23.9123ZM105.129 24.4467C104.924 24.5674 104.764 24.7334 104.649 24.9471C104.534 25.1609 104.477 25.4023 104.477 25.6726C104.477 25.943 104.534 26.1944 104.649 26.4094C104.764 26.6245 104.923 26.7917 105.129 26.9099C105.335 27.0281 105.57 27.0872 105.833 27.0872C106.097 27.0872 106.325 27.0281 106.53 26.9099C106.737 26.7917 106.896 26.6257 107.01 26.4094C107.125 26.1932 107.182 25.948 107.182 25.6726C107.182 25.3973 107.125 25.1596 107.01 24.9471C106.896 24.7347 106.737 24.5674 106.53 24.4467C106.324 24.326 106.092 24.2669 105.833 24.2669C105.575 24.2669 105.334 24.3273 105.129 24.4467Z" fill="black"/>
<path d="M112.453 23.6785V27.2506C112.453 27.6316 112.368 27.9648 112.198 28.2502C112.028 28.5356 111.788 28.7556 111.479 28.9078C111.169 29.0612 110.809 29.1366 110.397 29.1366C109.804 29.1366 109.25 28.9505 108.736 28.5796L109.048 28.0679C109.246 28.2288 109.452 28.347 109.665 28.425C109.879 28.5029 110.112 28.5419 110.365 28.5419C110.782 28.5419 111.114 28.4262 111.363 28.1961C111.611 27.966 111.736 27.6567 111.736 27.2707V26.7137C111.593 26.9539 111.401 27.1412 111.156 27.2732C110.913 27.4065 110.633 27.4719 110.318 27.4719C109.958 27.4719 109.639 27.3902 109.362 27.228C109.085 27.0645 108.87 26.8382 108.718 26.5477C108.567 26.2573 108.49 25.9241 108.49 25.5481C108.49 25.1722 108.567 24.8491 108.718 24.5636C108.871 24.2782 109.085 24.0544 109.362 23.8947C109.638 23.7338 109.957 23.6533 110.318 23.6533C110.638 23.6533 110.918 23.7187 111.16 23.8482C111.401 23.979 111.593 24.1638 111.736 24.4052V23.676H112.452L112.453 23.6785ZM111.119 26.7389C111.312 26.6232 111.463 26.4648 111.573 26.2611C111.682 26.0574 111.737 25.8285 111.737 25.5733C111.737 25.3181 111.682 25.0804 111.573 24.878C111.463 24.6743 111.313 24.5159 111.119 24.4002C110.926 24.2845 110.705 24.2267 110.457 24.2267C110.209 24.2267 109.986 24.2845 109.791 24.4002C109.596 24.5159 109.442 24.6743 109.33 24.878C109.218 25.0804 109.162 25.313 109.162 25.5733C109.167 25.9643 109.289 26.285 109.527 26.5364C109.765 26.7879 110.076 26.9124 110.456 26.9124C110.704 26.9124 110.926 26.8545 111.118 26.7389H111.119Z" fill="black"/>
<path d="M114.65 28.9128C114.439 29.0675 114.191 29.1454 113.907 29.1454C113.734 29.1454 113.578 29.1203 113.435 29.07C113.292 29.0197 113.156 28.9417 113.023 28.8374L113.328 28.2879C113.506 28.4136 113.686 28.4765 113.869 28.4765C114.174 28.4765 114.403 28.3055 114.554 27.9648L114.707 27.6115L113.039 23.6785H113.785L115.065 26.8671L116.276 23.6785H117L115.157 28.22C115.03 28.5256 114.861 28.7569 114.65 28.9116V28.9128Z" fill="black"/>
<path d="M13.8146 33.5247C13.6796 33.4656 10.4571 32.041 7.20535 29.6873C2.42386 26.2271 0 22.5581 0 18.781V0H29.7907V18.781C29.7907 22.5581 27.3668 26.2271 22.5866 29.6873C19.3348 32.041 16.1124 33.4656 15.9774 33.5247L14.896 33.9987L13.8146 33.5247ZM14.896 33.1538L15.6589 32.8193C15.7914 32.7615 18.9387 31.3696 22.1243 29.0649C26.693 25.7581 29.0086 22.2978 29.0086 18.7823V0.77327H0.783329V18.781C0.783329 22.2978 3.1002 25.7581 7.6677 29.0636C10.8532 31.3684 14.0006 32.7603 14.133 32.8181L14.896 33.1525V33.1538ZM2.66204 2.62786V18.781C2.66204 25.7568 14.896 31.1244 14.896 31.1244C14.896 31.1244 27.1299 25.7568 27.1299 18.781V2.62786H2.66204Z" fill="#0245B9"/>
<path d="M13.8669 5.71838L6.552 12.9393V22.9403H16.6831L23.9979 15.7193V5.71838H13.8669ZM13.644 19.939H9.59106V15.9381H13.644V19.939ZM20.0928 18.2919L16.6831 21.6578V12.9381H7.90086L11.3106 9.57216H20.0928V18.2919Z" fill="white"/>
</g>
<defs>
<clipPath id="clip0_5_163">
<rect width="117" height="34" fill="white"/>
</clipPath>
</defs>
</svg>
